{
  "source": "C:\\Users\\Peter\\Desktop\\stuff\\MIUN\\quantitative_research\\video_compression\\videos\\BVI-HD\\BVI-HD_CDVL_videos\\ORIG\\SmokeGuns_1920x1080_60fps.mp4",
  "output": "C:\\Users\\Peter\\Desktop\\stuff\\MIUN\\quantitative_research\\video_compression\\compressed_videos\\BVI-HD\\vp9\\1\\SmokeGuns_1920x1080_60fps_vp9.webm",
  "codec": "vp9",
  "ok": "Input #0, mov,mp4,m4a,3gp,3g2,mj2, from 'C:\\Users\\Peter\\Desktop\\stuff\\MIUN\\quantitative_research\\video_compression\\videos\\BVI-HD\\BVI-HD_CDVL_videos\\ORIG\\SmokeGuns_1920x1080_60fps.mp4':\n  Metadata:\n    major_brand     : isom\n    minor_version   : 512\n    compatible_brands: isomiso2avc1mp41\n    encoder         : Lavf54.28.101\n  Duration: 00:00:05.00, start: 0.000000, bitrate: 384353 kb/s\n  Stream #0:0[0x1](und): Video: h264 (High 4:4:4 Predictive) (avc1 / 0x31637661), yuv420p(progressive), 1920x1080, 384348 kb/s, 60 fps, 60 tbr, 60 tbn (default)\n    Metadata:\n      handler_name    : VideoHandler\n      vendor_id       : [0][0][0][0]\n[out#0/webm @ 0000018371299700] Codec AVOption b:a (set bitrate (in bits/s)) has not been used for any stream. The most likely reason is either wrong type (e.g. a video option with no video streams) or that it is a private option of some decoder which was not actually used for any stream.\nStream mapping:\n  Stream #0:0 -> #0:0 (h264 (native) -> vp9 (libvpx-vp9))\nPress [q] to stop, [?] for help\n[libvpx-vp9 @ 00000183718d0640] v1.15.2-100-g40561f514\nOutput #0, webm, to 'C:\\Users\\Peter\\Desktop\\stuff\\MIUN\\quantitative_research\\video_compression\\compressed_videos\\BVI-HD\\vp9\\1\\SmokeGuns_1920x1080_60fps_vp9.webm':\n  Metadata:\n    major_brand     : isom\n    minor_version   : 512\n    compatible_brands: isomiso2avc1mp41\n    encoder         : Lavf62.3.100\n  Stream #0:0(und): Video: vp9, yuv420p(tv, progressive), 1920x1080, q=2-31, 1000 kb/s, 60 fps, 1k tbn (default)\n    Metadata:\n      encoder         : Lavc62.11.100 libvpx-vp9\n      handler_name    : VideoHandler\n      vendor_id       : [0][0][0][0]\n    Side data:\n      cpb: bitrate max/min/avg: 0/0/0 buffer size: 1000000 vbv_delay: N/A\nframe=    0 fps=0.0 q=0.0 size=       0KiB time=N/A bitrate=N/A speed=N/A elapsed=0:00:00.51    \nframe=    3 fps=2.7 q=60.0 size=       1KiB time=00:00:00.05 bitrate= 101.3kbits/s speed=0.0443x elapsed=0:00:01.12    \nframe=    9 fps=5.4 q=59.0 size=       1KiB time=00:00:00.15 bitrate=  33.8kbits/s speed=0.0908x elapsed=0:00:01.65    \nframe=   15 fps=6.7 q=57.0 size=       1KiB time=00:00:00.25 bitrate=  20.3kbits/s speed=0.112x elapsed=0:00:02.22    \nframe=   19 fps=6.8 q=58.0 size=       1KiB time=00:00:00.31 bitrate=  16.0kbits/s speed=0.114x elapsed=0:00:02.77    \nframe=   24 fps=7.3 q=58.0 size=       1KiB time=00:00:00.40 bitrate=  12.7kbits/s speed=0.121x elapsed=0:00:03.30    \nframe=   29 fps=7.5 q=55.0 size=       1KiB time=00:00:00.48 bitrate=  10.5kbits/s speed=0.124x elapsed=0:00:03.89    \nframe=   34 fps=7.7 q=55.0 size=       1KiB time=00:00:00.56 bitrate=   8.9kbits/s speed=0.128x elapsed=0:00:04.43    \nframe=   40 fps=8.0 q=53.0 size=       1KiB time=00:00:00.66 bitrate=   7.6kbits/s speed=0.134x elapsed=0:00:04.97    \nframe=   46 fps=8.4 q=55.0 size=       1KiB time=00:00:00.76 bitrate=   6.6kbits/s speed=0.14x elapsed=0:00:05.48    \nframe=   52 fps=8.6 q=53.0 size=       1KiB time=00:00:00.86 bitrate=   5.8kbits/s speed=0.143x elapsed=0:00:06.04    \nframe=   56 fps=8.4 q=56.0 size=       1KiB time=00:00:00.93 bitrate=   5.4kbits/s speed=0.14x elapsed=0:00:06.65    \nframe=   60 fps=8.3 q=56.0 size=       1KiB time=00:00:00.98 bitrate=   5.1kbits/s speed=0.135x elapsed=0:00:07.26    \nframe=   62 fps=7.9 q=57.0 size=       1KiB time=00:00:01.03 bitrate=   4.9kbits/s speed=0.131x elapsed=0:00:07.87    \nframe=   68 fps=8.1 q=57.0 size=       1KiB time=00:00:01.13 bitrate=   4.5kbits/s speed=0.135x elapsed=0:00:08.42    \nframe=   72 fps=8.0 q=57.0 size=       1KiB time=00:00:01.20 bitrate=   4.2kbits/s speed=0.134x elapsed=0:00:08.96    \nframe=   79 fps=8.3 q=57.0 size=       1KiB time=00:00:01.31 bitrate=   3.8kbits/s speed=0.139x elapsed=0:00:09.49    \nframe=   84 fps=8.4 q=59.0 size=       1KiB time=00:00:01.40 bitrate=   3.6kbits/s speed=0.14x elapsed=0:00:10.02    \nframe=   90 fps=8.5 q=57.0 size=       1KiB time=00:00:01.50 bitrate=   3.4kbits/s speed=0.142x elapsed=0:00:10.54    \nframe=   95 fps=8.5 q=59.0 size=       1KiB time=00:00:01.58 bitrate=   3.2kbits/s speed=0.142x elapsed=0:00:11.14    \nframe=   98 fps=8.3 q=59.0 size=       1KiB time=00:00:01.61 bitrate=   3.1kbits/s speed=0.137x elapsed=0:00:11.76    \nframe=  102 fps=8.3 q=58.0 size=       1KiB time=00:00:01.70 bitrate=   3.0kbits/s speed=0.138x elapsed=0:00:12.34    \nframe=  106 fps=8.2 q=59.0 size=       1KiB time=00:00:01.76 bitrate=   2.9kbits/s speed=0.137x elapsed=0:00:12.86    \nframe=  108 fps=8.1 q=59.0 size=       1KiB time=00:00:01.80 bitrate=   2.8kbits/s speed=0.134x elapsed=0:00:13.39    \nframe=  114 fps=8.2 q=59.0 size=       1KiB time=00:00:01.90 bitrate=   2.7kbits/s speed=0.136x elapsed=0:00:13.94    \nframe=  118 fps=8.1 q=60.0 size=       1KiB time=00:00:01.96 bitrate=   2.6kbits/s speed=0.135x elapsed=0:00:14.55    \nframe=  122 fps=8.1 q=58.0 size=       1KiB time=00:00:02.03 bitrate=   2.5kbits/s speed=0.135x elapsed=0:00:15.08    \nframe=  127 fps=8.1 q=59.0 size=       1KiB time=00:00:02.11 bitrate=   2.4kbits/s speed=0.135x elapsed=0:00:15.62    \nframe=  131 fps=8.1 q=56.0 size=     246KiB time=00:00:02.18 bitrate= 921.9kbits/s speed=0.135x elapsed=0:00:16.17    \nframe=  137 fps=8.2 q=58.0 size=     246KiB time=00:00:02.28 bitrate= 881.5kbits/s speed=0.137x elapsed=0:00:16.70    \nframe=  141 fps=8.2 q=59.0 size=     246KiB time=00:00:02.35 bitrate= 856.5kbits/s speed=0.136x elapsed=0:00:17.22    \nframe=  145 fps=8.2 q=57.0 size=     246KiB time=00:00:02.41 bitrate= 832.9kbits/s speed=0.136x elapsed=0:00:17.73    \nframe=  149 fps=8.2 q=57.0 size=     246KiB time=00:00:02.48 bitrate= 810.5kbits/s speed=0.136x elapsed=0:00:18.26    \nframe=  153 fps=8.1 q=58.0 size=     246KiB time=00:00:02.55 bitrate= 789.3kbits/s speed=0.136x elapsed=0:00:18.78    \nframe=  157 fps=8.1 q=56.0 size=     246KiB time=00:00:02.61 bitrate= 769.2kbits/s speed=0.135x elapsed=0:00:19.39    \nframe=  162 fps=8.1 q=57.0 size=     246KiB time=00:00:02.70 bitrate= 745.5kbits/s speed=0.135x elapsed=0:00:19.97    \nframe=  165 fps=8.0 q=58.0 size=     246KiB time=00:00:02.75 bitrate= 731.9kbits/s speed=0.134x elapsed=0:00:20.52    \nframe=  170 fps=8.1 q=57.0 size=     246KiB time=00:00:02.83 bitrate= 710.4kbits/s speed=0.134x elapsed=0:00:21.11    \nframe=  174 fps=8.0 q=59.0 size=     246KiB time=00:00:02.90 bitrate= 694.1kbits/s speed=0.134x elapsed=0:00:21.66    \nframe=  177 fps=8.0 q=59.0 size=     246KiB time=00:00:02.95 bitrate= 682.3kbits/s speed=0.133x elapsed=0:00:22.21    \nframe=  181 fps=8.0 q=58.0 size=     246KiB time=00:00:03.01 bitrate= 667.2kbits/s speed=0.133x elapsed=0:00:22.73    \nframe=  186 fps=8.0 q=59.0 size=     246KiB time=00:00:03.10 bitrate= 649.3kbits/s speed=0.133x elapsed=0:00:23.25    \nframe=  189 fps=7.9 q=59.0 size=     246KiB time=00:00:03.15 bitrate= 639.0kbits/s speed=0.132x elapsed=0:00:23.82    \nframe=  194 fps=8.0 q=58.0 size=     246KiB time=00:00:03.23 bitrate= 622.5kbits/s speed=0.133x elapsed=0:00:24.38    \nframe=  198 fps=7.9 q=59.0 size=     246KiB time=00:00:03.30 bitrate= 609.9kbits/s speed=0.132x elapsed=0:00:24.92    \nframe=  201 fps=7.9 q=58.0 size=     246KiB time=00:00:03.35 bitrate= 600.8kbits/s speed=0.131x elapsed=0:00:25.51    \nframe=  205 fps=7.9 q=56.0 size=     246KiB time=00:00:03.41 bitrate= 589.1kbits/s speed=0.131x elapsed=0:00:26.05    \nframe=  210 fps=7.9 q=58.0 size=     246KiB time=00:00:03.50 bitrate= 575.1kbits/s speed=0.132x elapsed=0:00:26.56    \nframe=  214 fps=7.9 q=54.0 size=     246KiB time=00:00:03.56 bitrate= 564.3kbits/s speed=0.131x elapsed=0:00:27.13    \nframe=  219 fps=7.9 q=57.0 size=     246KiB time=00:00:03.65 bitrate= 551.4kbits/s speed=0.132x elapsed=0:00:27.74    \nframe=  223 fps=7.9 q=57.0 size=     246KiB time=00:00:03.71 bitrate= 541.5kbits/s speed=0.131x elapsed=0:00:28.32    \nframe=  227 fps=7.9 q=53.0 size=     246KiB time=00:00:03.78 bitrate= 532.0kbits/s speed=0.131x elapsed=0:00:28.87    \nframe=  231 fps=7.9 q=54.0 size=     246KiB time=00:00:03.85 bitrate= 522.8kbits/s speed=0.131x elapsed=0:00:29.41    \nframe=  235 fps=7.8 q=55.0 size=     246KiB time=00:00:03.91 bitrate= 513.9kbits/s speed=0.131x elapsed=0:00:29.98    \nframe=  240 fps=7.9 q=53.0 size=     246KiB time=00:00:04.00 bitrate= 503.2kbits/s speed=0.131x elapsed=0:00:30.53    \nframe=  245 fps=7.9 q=54.0 size=     246KiB time=00:00:04.08 bitrate= 492.9kbits/s speed=0.131x elapsed=0:00:31.08    \nframe=  250 fps=7.9 q=51.0 size=     246KiB time=00:00:04.16 bitrate= 483.1kbits/s speed=0.132x elapsed=0:00:31.66    \nframe=  256 fps=8.0 q=53.0 size=     246KiB time=00:00:04.26 bitrate= 471.7kbits/s speed=0.133x elapsed=0:00:32.18    \nframe=  260 fps=7.9 q=50.0 size=     512KiB time=00:00:04.33 bitrate= 967.9kbits/s speed=0.132x elapsed=0:00:32.71    \nframe=  265 fps=8.0 q=52.0 size=     512KiB time=00:00:04.41 bitrate= 949.7kbits/s speed=0.133x elapsed=0:00:33.26    \nframe=  270 fps=8.0 q=53.0 size=     512KiB time=00:00:04.50 bitrate= 932.1kbits/s speed=0.133x elapsed=0:00:33.79    \nframe=  275 fps=8.0 q=53.0 size=     512KiB time=00:00:04.58 bitrate= 915.1kbits/s speed=0.134x elapsed=0:00:34.31    \nframe=  276 fps=7.9 q=54.0 size=     512KiB time=00:00:04.60 bitrate= 911.8kbits/s speed=0.132x elapsed=0:00:34.83    \nframe=  276 fps=7.8 q=54.0 size=     512KiB time=00:00:04.60 bitrate= 911.8kbits/s speed=0.13x elapsed=0:00:35.35    \nframe=  276 fps=7.7 q=54.0 size=     512KiB time=00:00:04.60 bitrate= 911.8kbits/s speed=0.128x elapsed=0:00:35.88    \nframe=  276 fps=7.6 q=54.0 size=     512KiB time=00:00:04.60 bitrate= 911.8kbits/s speed=0.126x elapsed=0:00:36.40    \n[out#0/webm @ 0000018371299700] video:625KiB audio:0KiB subtitle:0KiB other streams:0KiB global headers:0KiB muxing overhead: 0.442055%\nframe=  300 fps=8.2 q=55.0 Lsize=     627KiB time=00:00:05.00 bitrate=1027.7kbits/s speed=0.137x elapsed=0:00:36.47    \n",
  "seconds": 37.01415801048279,
  "probe_out": {}
}